#!OML:ASF H:\ManfredETheater\Project 1\Capture day 1\Session 1\subject.ASF
:FULLY-SPECIFIED
:DEGREES
297
root 0.477735 15.0184 27.7337 17.7711 -2.37833 -2.63943
lowerback 24.0032 -1.92923 7.49415
upperback 0.81411 0.259393 5.642
thorax -12.6136 -0.117736 2.03848
lowerneck -23.3255 17.1032 4.14737
upperneck -2.30527 46.4967 -4.45524
head 38.7178 -51.8064 143.069
rclavicle -7.95139e-015 5.08889e-014
rhumerus -28.448 -14.0915 -56.2184
rradius 43.7971
rwrist -4.6487
rhand -19.6454 -1.5262
rfingers 7.12502
rthumb 6.68216 -31.4008
lclavicle -7.95139e-015 5.08889e-014
lhumerus -46.3374 -18.2168 101.197
lradius 75.6199
lwrist -3.12829
lhand -27.8959 -13.8462
lfingers 7.12502
lthumb -1.28541 16.1297
rfemur -60.5215 -1.87302 15.1873
rtibia 70.3223
rfoot -17.2528 -13.0461
rtoes -28.8283
lfemur -8.68842 -4.61697 -25.5257
ltibia 77.5437
lfoot 16.2046 -13.4526
ltoes 11.9928
298
root 0.43987 15.0446 28.1435 17.4941 -1.75695 -3.38398
lowerback 23.8791 -1.90138 7.95897
upperback 0.756556 0.438745 5.8326
thorax -12.6105 -0.056897 1.93151
lowerneck -23.2169 16.9264 4.27313
upperneck -2.36518 46.3049 -4.44946
head 38.5746 -51.9216 143.411
rclavicle -7.95139e-015 3.97569e-014
rhumerus -27.4457 -13.923 -57.2482
rradius 45.8742
rwrist -5.4594
rhand -19.7616 -1.60034
rfingers 7.12502
rthumb 6.56995 -31.4784
lclavicle -7.95139e-015 3.97569e-014
lhumerus -46.571 -17.1225 100.285
lradius 73.5746
lwrist -2.78396
lhand -28.3409 -13.8857
lfingers 7.12502
lthumb -1.71518 16.0872
rfemur -58.2554 -1.87354 16.1248
rtibia 70.415
rfoot -18.7753 -13.8052
rtoes -30.7032
lfemur -11.5772 -3.66276 -24.0822
ltibia 81.6572
lfoot 13.8896 -13.6714
ltoes 11.067
299
root 0.406419 15.1178 28.5675 17.2906 -1.10764 -3.94742
lowerback 23.6433 -1.85373 8.24675
upperback 0.670492 0.577487 5.97655
thorax -12.5781 -0.00536397 1.88327
lowerneck -23.093 16.7502 4.41759
upperneck -2.41612 46.1173 -4.43172
head 38.3684 -51.9677 143.826
rclavicle -1.74931e-014 2.70347e-014
rhumerus -26.5952 -13.6089 -58.3352
rradius 48.0988
rwrist -6.1463
rhand -19.7468 -1.40641
rfingers 7.12502
rthumb 6.58428 -31.2841
lclavicle -1.74931e-014 2.70347e-014
lhumerus -46.9732 -16.2002 99.3859
lradius 71.832
lwrist -2.48402
lhand -28.5278 -14.1092
lfingers 7.12502
lthumb -1.89567 15.8621
rfemur -55.7045 -1.88711 16.8047
rtibia 70.1321
rfoot -20.286 -14.4931
rtoes -32.5598
lfemur -14.5574 -2.74175 -22.8449
ltibia 85.2644
lfoot 11.576 -13.3709
ltoes 10.1204
300
root 0.367738 15.153 28.9742 17.1398 -0.420627 -4.33807
lowerback 23.3307 -1.79243 8.37094
upperback 0.567302 0.674348 6.07085
thorax -12.5232 0.0354847 1.88341
lowerneck -22.9767 16.5742 4.57836
upperneck -2.46938 45.933 -4.41106
head 38.1035 -51.9534 144.311
rclavicle -2.06736e-014 3.49861e-014
rhumerus -25.8594 -13.1662 -59.4684
rradius 50.4048
rwrist -6.64058
rhand -19.5747 -1.01328
rfingers 7.12502
rthumb 6.75035 -30.8857
lclavicle -2.06736e-014 3.49861e-014
lhumerus -47.5623 -15.4978 98.5179
lradius 70.4854
lwrist -2.3041
lhand -28.4124 -14.5464
lfingers 7.12502
lthumb -1.78424 15.4259
rfemur -53.3989 -1.89709 17.2439
rtibia 69.8465
rfoot -21.6031 -15.0914
rtoes -34.2693
lfemur -17.7937 -1.87872 -21.8383
ltibia 88.7302
lfoot 9.17766 -12.5837
ltoes 9.55726
301
root 0.329809 15.1925 29.3794 17.02 0.310568 -4.60651
lowerback 22.9745 -1.72913 8.39577
upperback 0.456869 0.736343 6.12197
thorax -12.4521 0.0651687 1.90111
lowerneck -22.8828 16.3961 4.74884
upperneck -2.52741 45.745 -4.38969
head 37.7965 -51.892 144.842
rclavicle -1.59028e-014 5.88403e-014
rhumerus -25.2058 -12.5954 -60.6334
rradius 52.7427
rwrist -6.94567
rhand -19.273 -0.482308
rfingers 7.12502
rthumb 7.04162 -30.3452
lclavicle -1.59028e-014 5.88403e-014
lhumerus -48.3511 -15.0528 97.7075
lradius 69.5859
lwrist -2.30218
lhand -28.052 -15.1964
lfingers 7.12502
lthumb -1.4361 14.7785
rfemur -51.0384 -1.89068 17.5191
rtibia 69.3715
rfoot -22.8148 -15.623
rtoes -35.7926
lfemur -21.1419 -1.05868 -21.0338
ltibia 91.8043
lfoot 6.87501 -11.478
ltoes 9.31041
302
root 0.292154 15.2364 29.7845 16.8926 1.09349 -4.82719
lowerback 22.6194 -1.6717 8.38415
upperback 0.350081 0.777773 6.14872
thorax -12.377 0.0869657 1.91844
lowerneck -22.8107 16.2164 4.92639
upperneck -2.58768 45.5608 -4.36795
head 37.4547 -51.7785 145.409
rclavicle -3.33958e-014 -4.45278e-014
rhumerus -24.6204 -11.8876 -61.8111
rradius 55.0759
rwrist -7.06945
rhand -18.912 0.110929
rfingers 7.12502
rthumb 7.39014 -29.74
lclavicle -3.33958e-014 -4.45278e-014
lhumerus -49.3409 -14.8862 96.9849
lradius 69.1347
lwrist -2.4942
lhand -27.5328 -16.0086
lfingers 7.12502
lthumb -0.934693 13.9691
rfemur -48.5888 -1.83517 17.7383
rtibia 68.7732
rfoot -23.985 -16.1183
rtoes -37.0434
lfemur -24.5277 -0.286307 -20.361
ltibia 94.4854
lfoot 4.64676 -10.2612
ltoes 9.27558
303
root 0.255663 15.2833 30.1893 16.7653 1.92863 -5.05844
lowerback 22.2605 -1.62199 8.39353
upperback 0.246901 0.812839 6.16813
thorax -12.2947 0.104545 1.91767
lowerneck -22.7646 16.0332 5.10025
upperneck -2.64738 45.3833 -4.34679
head 37.0846 -51.6087 145.999
rclavicle 0 -3.33958e-014
rhumerus -24.0857 -11.0391 -62.9743
rradius 57.3773
rwrist -7.08043
rhand -18.5811 0.682999
rfingers 7.12502
rthumb 7.70944 -29.1565
lclavicle 0 -3.33958e-014
lhumerus -50.5011 -14.9955 96.374
lradius 69.0821
lwrist -2.86109
lhand -26.9522 -16.8676
lfingers 7.12502
lthumb -0.373929 13.1118
rfemur -46.0536 -1.72598 17.9896
rtibia 67.978
rfoot -25.0094 -16.6046
rtoes -38.118
lfemur -27.9538 0.433007 -19.7737
ltibia 96.7134
lfoot 2.50799 -9.13071
ltoes 9.28262
304
root 0.223141 15.3325 30.5953 16.6145 2.79634 -5.34459
lowerback 21.9126 -1.5805 8.48681
upperback 0.154285 0.858823 6.18815
thorax -12.2047 0.122408 1.86708
lowerneck -22.7398 15.8434 5.25837
upperneck -2.7001 45.2235 -4.32644
head 36.6911 -51.3705 146.602
rclavicle 3.97569e-015 -3.49861e-014
rhumerus -23.6045 -10.0619 -64.0889
rradius 59.6276
rwrist -7.01423
rhand -18.3426 1.24667
rfingers 7.12502
rthumb 7.9397 -28.5842
lclavicle 3.97569e-015 -3.49861e-014
lhumerus -51.7911 -15.3596 95.8926
lradius 69.3432
lwrist -3.33029
lhand -26.3935 -17.7025
lfingers 7.12502
lthumb 0.165676 12.2772
rfemur -43.4211 -1.5733 18.3329
rtibia 66.9908
rfoot -25.8487 -17.0777
rtoes -39.0418
lfemur -31.3613 1.09472 -19.2539
ltibia 98.4655
lfoot 0.436068 -8.19253
ltoes 9.21103
305
root 0.194966 15.3834 31.0035 16.4282 3.67462 -5.70326
lowerback 21.58 -1.53663 8.66318
upperback 0.0767911 0.930201 6.22123
thorax -12.104 0.147956 1.77685
lowerneck -22.7337 15.6415 5.38612
upperneck -2.74282 45.083 -4.30889
head 36.2822 -51.067 147.208
rclavicle 0 -3.97569e-014
rhumerus -23.1774 -8.9786 -65.1243
rradius 61.8178
rwrist -6.8983
rhand -18.2197 1.74944
rfingers 7.12502
rthumb 8.05826 -28.0769
lclavicle 0 -3.97569e-014
lhumerus -53.1626 -15.9261 95.5505
lradius 69.824
lwrist -3.80288
lhand -25.8982 -18.4255
lfingers 7.12502
lthumb 0.644041 11.5533
rfemur -40.7048 -1.38894 18.8103
rtibia 65.829
rfoot -26.505 -17.5117
rtoes -39.6968
lfemur -34.7143 1.70363 -18.7837
ltibia 99.7305
lfoot -1.59144 -7.54566
ltoes 8.99133
306
root 0.17273 15.4357 31.4154 16.2093 4.51877 -6.1172
lowerback 21.2542 -1.47393 8.90313
upperback 0.0150603 1.04076 6.26085
thorax -11.986 0.188752 1.64629
lowerneck -22.7392 15.4242 5.48075
upperneck -2.77658 44.9631 -4.29648
head 35.8606 -50.7059 147.82
rclavicle 2.06736e-014 1.43125e-014
rhumerus -22.8159 -7.8253 -66.065
rradius 63.9325
rwrist -6.75344
rhand -18.2617 2.29084
rfingers 7.12502
rthumb 8.01773 -27.5371
lclavicle 2.06736e-014 1.43125e-014
lhumerus -54.5725 -16.642 95.3409
lradius 70.4405
lwrist -4.15666
lhand -25.4633 -18.9998
lfingers 7.12502
lthumb 1.06411 10.9773
rfemur -37.9339 -1.19072 19.402
rtibia 64.5113
rfoot -26.9577 -17.8959
rtoes -40.106
lfemur -37.9803 2.27063 -18.3953
ltibia 100.495
lfoot -3.61 -7.20655
ltoes 8.29574
307
root 0.157579 15.4892 31.8316 15.9572 5.27536 -6.55104
lowerback 20.9389 -1.37319 9.15497
upperback -0.0262779 1.20171 6.30159
thorax -11.8472 0.253234 1.49515
lowerneck -22.7546 15.1862 5.52962
upperneck -2.79787 44.8527 -4.28783
head 35.4437 -50.3084 148.412
rclavicle -1.27222e-014 2.06736e-014
rhumerus -22.5097 -6.63811 -66.9011
rradius 65.9498
rwrist -6.57803
rhand -18.4506 2.87136
rfingers 7.12502
rthumb 7.8354 -26.9634
lclavicle -1.27222e-014 2.06736e-014
lhumerus -55.9841 -17.4376 95.2545
lradius 71.1272
lwrist -4.28773
lhand -25.0853 -19.4201
lfingers 7.12502
lthumb 1.42917 10.5548
rfemur -35.1263 -0.986531 20.0573
rtibia 63.0578
rfoot -27.1785 -18.2133
rtoes -40.3098
lfemur -41.1154 2.80821 -18.139
ltibia 100.749
lfoot -5.56655 -7.14515
ltoes 7.25746
308
root 0.151053 15.5445 32.2529 15.6746 5.91101 -6.96114
lowerback 20.6392 -1.22761 9.38594
upperback -0.0467968 1.41279 6.32875
thorax -11.6891 0.342862 1.32603
lowerneck -22.7748 14.9248 5.53188
upperneck -2.80724 44.7385 -4.28163
head 35.0421 -49.9003 148.972
rclavicle 2.46493e-014 5.40694e-014
rhumerus -22.2551 -5.44963 -67.6395
rradius 67.8434
rwrist -6.38405
rhand -18.7715 3.51745
rfingers 7.12502
rthumb 7.52574 -26.3287
lclavicle 2.46493e-014 5.40694e-014
lhumerus -57.3765 -18.2471 95.2628
lradius 71.8486
lwrist -4.1415
lhand -24.7184 -19.713
lfingers 7.12502
lthumb 1.78353 10.2593
rfemur -32.2867 -0.801452 20.7103
rtibia 61.4805
rfoot -27.1659 -18.4452
rtoes -40.3339
lfemur -44.0775 3.30758 -18.0651
ltibia 100.484
lfoot -7.42606 -7.27153
ltoes 5.97264
